<svg xmlns="http://www.w3.org/2000/svg" viewBox="0 0 64 64">
  <!-- Ground tile -->
  <polygon points="32,44 52,34 32,24 12,34" fill="#427239"/>
  <polygon points="12,34 32,44 32,48 12,38" fill="#3A6430"/>
  <polygon points="52,34 32,44 32,48 52,38" fill="#3E6B33"/>
  <!-- Building -->
  <polygon points="22,34 22,16 42,16 42,34" fill="#C8A87A"/>
  <polygon points="22,16 32,11 42,16" fill="#8B4513"/>
  <polygon points="22,34 22,16 18,19 18,37" fill="#5C3518"/>
  <polygon points="42,34 42,16 46,19 46,37" fill="#8A5428"/>
  <!-- Windows -->
  <rect x="25" y="20" width="4" height="4" fill="#ffdc64" opacity="0.6"/>
  <rect x="33" y="20" width="4" height="4" fill="#ffdc64" opacity="0.6"/>
  <rect x="25" y="27" width="4" height="4" fill="#ffdc64" opacity="0.6"/>
  <rect x="33" y="27" width="4" height="4" fill="#ffdc64" opacity="0.6"/>
  <!-- Door -->
  <rect x="29" y="28" width="4" height="6" fill="#3A2815"/>
</svg>
